<?xml version="1.0" encoding="UTF-8"?>
<svg version="1.1" xmlns="http://www.w3.org/2000/svg" width="500" height="500">
<path d="M0 0 C123.09 0 246.18 0 373 0 C373.33 1.32 373.66 2.64 374 4 C373.67 4.33 373.34 4.66 373 5 C371.01870767 4.98694651 369.03774807 4.91715891 367.05859375 4.82421875 C354.64080461 3.90447671 354.64080461 3.90447671 343.05419922 7.19140625 C340.2815977 10.2884719 339.04610514 14.14863376 337.76806641 18.02734375 C336.43194867 21.45894939 334.25958791 24.25940542 332.0625 27.1875 C331.63316162 27.7738623 331.20382324 28.36022461 330.76147461 28.96435547 C329.51969653 30.65230538 328.26269925 32.32766595 327 34 C326.32710938 34.89976562 325.65421875 35.79953125 324.9609375 36.7265625 C297.06124666 72.38215195 255.14095442 98.05414194 210 104 C171.89188507 108.16099417 134.75547059 102.55983881 101 84 C99.98292969 83.45988281 98.96585937 82.91976562 97.91796875 82.36328125 C84.25218319 74.80776661 72.19304234 64.81076631 61 54 C60.00548903 53.06871058 59.01069378 52.13772464 58.015625 51.20703125 C44.56304825 38.42348756 33.29919965 22.5983993 25 6 C12.13 5.505 12.13 5.505 -1 5 C-0.67 3.35 -0.34 1.7 0 0 Z M30 5 C50.52315877 46.04631755 87.73651665 77.95275162 131.25854492 92.53295898 C174.11464707 106.28705831 222.20199841 103.11506202 262.57177734 82.85668945 C291.19415307 67.88493441 314.47850167 45.68697629 332.5 19.0625 C332.90959961 18.45994385 333.31919922 17.8573877 333.74121094 17.23657227 C334.31790527 16.36343384 334.31790527 16.36343384 334.90625 15.47265625 C335.23947266 14.97000244 335.57269531 14.46734863 335.91601562 13.94946289 C337.5095484 11.08361622 338.70830361 8.01395824 340 5 C237.7 5 135.4 5 30 5 Z " fill="#FFFFFF" transform="translate(71,321)"/>
<path d="M0 0 C0.96526611 0.00829834 1.93053223 0.01659668 2.92504883 0.02514648 C17.24374597 0.36397208 28.43629647 5.87514493 38.875 15.625 C50.12191793 27.47659094 54.36861183 41.34287864 54.125 57.4375 C52.42010906 72.91393717 45.69435912 84.95005673 34.12109375 95.21484375 C21.03514458 105.6042943 7.3498569 107.58612889 -8.875 106.4375 C-22.68689856 104.42326479 -34.61956616 97.21621826 -43 86.25 C-52.07599317 73.25162993 -55.73036537 59.25638803 -53.4453125 43.46875 C-50.29935639 28.70994355 -42.14172014 16.97448863 -29.8515625 8.3046875 C-20.24331121 2.40141743 -11.24727513 -0.12533157 0 0 Z M-26.875 8.4375 C-28.33942501 11.94079298 -27.94687992 15.6997442 -27.875 19.4375 C-26.83859375 19.57027344 -25.8021875 19.70304687 -24.734375 19.83984375 C-23.36456735 20.01810639 -21.99477656 20.19649862 -20.625 20.375 C-19.94308594 20.46201172 -19.26117188 20.54902344 -18.55859375 20.63867188 C-13.11110795 21.35266273 -13.11110795 21.35266273 -10.8203125 22.17578125 C-7.50528235 22.62177928 -4.98847451 21.03713365 -2 19.6875 C-0.80632812 19.15640625 0.38734375 18.6253125 1.6171875 18.078125 C4.81488164 16.58254422 7.97737222 15.03537832 11.125 13.4375 C11.26036774 12.00260191 11.35717143 10.56402893 11.4375 9.125 C11.52451172 7.92423828 11.52451172 7.92423828 11.61328125 6.69921875 C11.32454886 4.23074078 11.32454886 4.23074078 8.984375 2.66796875 C-1.90374397 -2.01749228 -17.22887174 2.43142014 -26.875 8.4375 Z M13.125 4.4375 C12.36257911 7.98776295 12.26736874 10.89388073 13.125 14.4375 C16.36849425 18.62840666 20.14279803 21.93896629 24.125 25.4375 C24.96675781 26.3553125 25.80851562 27.273125 26.67578125 28.21875 C29.41403127 30.69933375 30.50885539 31.05154706 34.125 31.125 C37.86444803 31.31476303 40.72184771 31.73592386 44.125 33.4375 C44.54948106 27.28252467 44.21358598 24.34380318 40.125 19.4375 C33.9186083 12.34448091 26.70398623 5.67457378 17 4.5625 C15.72125 4.52125 14.4425 4.48 13.125 4.4375 Z M-34.875 25.4375 C-36.09895883 26.81713781 -37.32844292 28.19188743 -38.5625 29.5625 C-42.61332034 33.9162524 -42.61332034 33.9162524 -43.95703125 39.51171875 C-43.68417246 43.16960839 -43.32649097 46.79735409 -42.875 50.4375 C-42.7925 51.28183594 -42.71 52.12617188 -42.625 52.99609375 C-42.09667045 55.49150741 -41.68457599 56.6142151 -39.875 58.4375 C-34.86328337 60.65327127 -29.17040648 62.85442318 -23.62109375 62.15234375 C-21.58052083 61.38425523 -21.58052083 61.38425523 -18.875 59.4375 C-19.535 60.0975 -20.195 60.7575 -20.875 61.4375 C-20.75107216 69.12102588 -18.76073869 78.62008199 -13.09765625 84.18359375 C-10.32046593 85.75033908 -7.73584766 86.42837653 -4.625 87.125 C-3.54734375 87.37636719 -2.4696875 87.62773437 -1.359375 87.88671875 C5.53577179 89.28935025 5.53577179 89.28935025 11.96142578 87.24584961 C13.78221793 85.60328315 15.42462486 83.88706596 17.0625 82.0625 C17.63806641 81.45921875 18.21363281 80.8559375 18.80664062 80.234375 C22.62432152 76.18736345 24.53420969 73.8470146 24.48046875 68 C23.65067589 62.01819652 21.25159698 55.73589531 17.9765625 50.65625 C14.89785591 48.62975958 11.38834468 48.30597245 7.8125 47.75 C7.06548828 47.62044922 6.31847656 47.49089844 5.54882812 47.35742188 C1.36362705 46.66295041 -2.61762473 46.29536187 -6.875 46.4375 C-6.92398438 45.85484375 -6.97296875 45.2721875 -7.0234375 44.671875 C-7.27414587 41.92272806 -7.56897505 39.18104926 -7.875 36.4375 C-7.98585937 35.37144531 -8.09671875 34.30539063 -8.2109375 33.20703125 C-8.41589844 31.61955078 -8.41589844 31.61955078 -8.625 30 C-8.74359375 29.01128906 -8.8621875 28.02257812 -8.984375 27.00390625 C-9.67680775 24.22859732 -9.67680775 24.22859732 -12.31640625 22.6328125 C-20.17351464 18.96216339 -29.2937957 18.19701875 -34.875 25.4375 Z M26.375 34.9375 C25.6186598 36.43431312 24.86883779 37.93443468 24.125 39.4375 C23.17527108 40.81845719 22.21715233 42.19368878 21.25 43.5625 C19.64455226 46.17578401 19.13064194 47.1779706 19.0625 50.3125 C20.27635079 53.88264939 21.68480395 57.34490292 23.13671875 60.82421875 C24.5779692 64.63527232 25.35156606 68.44142466 26.125 72.4375 C34.90528958 74.07408932 34.90528958 74.07408932 43.31640625 72.33203125 C45.01845661 70.46110905 46.04061373 68.72371509 47.125 66.4375 C47.55425781 65.6021875 47.98351562 64.766875 48.42578125 63.90625 C51.99409136 55.81653066 51.10387061 49.72674895 48.07421875 41.62890625 C46.30071567 37.64863387 44.85085635 34.998389 41.375 32.3125 C32.76205881 29.88372784 32.76205881 29.88372784 26.375 34.9375 Z M-48.875 35.4375 C-51.48855319 41.47356333 -52.34513848 46.32630152 -52.25 52.875 C-52.26160156 53.66970703 -52.27320313 54.46441406 -52.28515625 55.28320312 C-52.2579561 60.85470141 -51.66231216 66.50868419 -48.875 71.4375 C-46.85546474 72.71208769 -46.85546474 72.71208769 -44.875 73.4375 C-42.34982346 65.93330305 -41.60858773 60.21217013 -42.875 52.4375 C-43.01292969 51.23867187 -43.15085938 50.03984375 -43.29296875 48.8046875 C-43.71423932 42.25956636 -43.71423932 42.25956636 -46.3828125 36.52734375 C-47.70162352 35.33919924 -47.70162352 35.33919924 -48.875 35.4375 Z M51.125 58.4375 C50.72667969 59.26894531 50.32835937 60.10039062 49.91796875 60.95703125 C49.12326172 62.58705078 49.12326172 62.58705078 48.3125 64.25 C47.52939453 65.86841797 47.52939453 65.86841797 46.73046875 67.51953125 C45.125 70.4375 45.125 70.4375 43.5 71.9375 C41.39421431 74.23472075 41.36194219 76.58860591 40.9375 79.625 C40.77894531 80.71167969 40.62039063 81.79835938 40.45703125 82.91796875 C40.34746094 83.74941406 40.23789062 84.58085937 40.125 85.4375 C46.91487397 79.81160443 50.38717961 70.9528199 52.125 62.4375 C51.70592772 60.29596911 51.70592772 60.29596911 51.125 58.4375 Z M-47.875 74.4375 C-43.50776127 84.69101702 -36.07003335 92.27407165 -26.875 98.4375 C-26.215 98.1075 -25.555 97.7775 -24.875 97.4375 C-30.44415992 90.064176 -30.44415992 90.064176 -37.0625 83.6875 C-40.03453735 81.30987012 -42.22385573 78.76112006 -44.578125 75.79296875 C-45.00609375 75.34566406 -45.4340625 74.89835937 -45.875 74.4375 C-46.535 74.4375 -47.195 74.4375 -47.875 74.4375 Z M-18.0859375 85.7734375 C-19.13007813 86.44632812 -20.17421875 87.11921875 -21.25 87.8125 C-22.30960938 88.48023438 -23.36921875 89.14796875 -24.4609375 89.8359375 C-25.25757813 90.36445313 -26.05421875 90.89296875 -26.875 91.4375 C-25.0110696 96.72461027 -22.55707079 99.42574282 -17.875 102.4375 C-6.33578156 107.61758466 3.58325565 105.48977388 15.125 101.4375 C14.18054206 96.96501482 12.44790731 93.61563129 9.125 90.4375 C6.22219062 89.12396989 3.32332403 88.61393256 0.1875 88.125 C-1.3846142 87.83998176 -2.95624341 87.55227371 -4.52734375 87.26171875 C-5.27661133 87.13506836 -6.02587891 87.00841797 -6.79785156 86.87792969 C-8.875 86.4375 -8.875 86.4375 -12.04296875 85.12109375 C-14.99013866 84.11497405 -14.99013866 84.11497405 -18.0859375 85.7734375 Z M18.9375 99.875 C18.009375 100.390625 17.08125 100.90625 16.125 101.4375 C19.19742053 102.83846246 19.19742053 102.83846246 22.3125 101 C23.240625 100.484375 24.16875 99.96875 25.125 99.4375 C22.05257947 98.03653754 22.05257947 98.03653754 18.9375 99.875 Z " fill="#FFFFFF" transform="translate(255.875,154.5625)"/>
<path d="M0 0 C1.35254883 0.34659668 1.35254883 0.34659668 2.73242188 0.70019531 C14.82494295 3.89406716 26.16460921 7.85377314 37.09960938 13.9453125 C39.07850778 15.04357061 41.0759594 16.10108026 43.078125 17.15625 C57.00784699 24.60568767 68.62326378 34.11907425 80 45 C80.9384375 45.88558594 81.876875 46.77117187 82.84375 47.68359375 C89.65858855 54.27829004 95.47231031 61.33305694 101 69 C101.40041504 69.54011719 101.80083008 70.08023438 102.21337891 70.63671875 C122.62084726 98.3178921 133.33094736 132.30448684 133.0625 166.5625 C133.05798828 167.66658203 133.05347656 168.77066406 133.04882812 169.90820312 C133.0371514 172.605527 133.02077525 175.30273347 133 178 C131.68 178.33 130.36 178.66 129 179 C128.97812622 178.11985229 128.97812622 178.11985229 128.95581055 177.22192383 C127.70446243 131.67373663 115.49460581 86.5457346 81.8125 53.75 C80.884375 52.8425 79.95625 51.935 79 51 C79 50.34 79 49.68 79 49 C78.11175537 48.60590942 78.11175537 48.60590942 77.20556641 48.20385742 C74.89785892 46.94424865 73.49906112 45.65067705 71.7109375 43.73828125 C44.56238673 15.83199581 3.6354529 2.30493983 -34.51318359 1.64599609 C-61.46203241 1.4269792 -87.30055076 5.68680419 -111.10400391 18.94970703 C-113.0684229 20.03790308 -115.05272118 21.0809859 -117.04296875 22.12109375 C-155.64325978 42.62677803 -184.4959234 80.39043645 -197.25 121.875 C-202.76642937 140.67889114 -204.09751308 159.47788194 -204 179 C-205.32 179 -206.64 179 -208 179 C-208.64164011 145.73342805 -208.64164011 145.73342805 -205 131 C-204.80132324 130.17773926 -204.60264648 129.35547852 -204.39794922 128.50830078 C-194.91038466 90.238237 -171.99901154 56.2635211 -141 32 C-140.47615723 31.57847656 -139.95231445 31.15695313 -139.41259766 30.72265625 C-121.54358441 16.40620463 -101.00859617 7.01225096 -79 1 C-78.14776855 0.7628125 -77.29553711 0.525625 -76.41748047 0.28125 C-53.22631093 -5.84592355 -23.26694367 -6.05180607 0 0 Z " fill="#FFFFFF" transform="translate(295,84)"/>
<path d="M0 0 C1.29508846 -0.00260775 2.59017692 -0.00521549 3.92451048 -0.00790226 C5.37537112 -0.00573986 6.82623162 -0.00348319 8.27709198 -0.0011425 C9.80769402 -0.00229365 11.33829578 -0.00388114 12.86889696 -0.00586975 C17.09050836 -0.01006388 21.3120973 -0.00797199 25.53370881 -0.00488353 C30.0804499 -0.00262999 34.627187 -0.00610881 39.17392731 -0.00886345 C48.08716816 -0.01332063 57.00040062 -0.01234491 65.91364181 -0.00945081 C73.15471139 -0.00719657 80.39577862 -0.00688434 87.63684845 -0.00797462 C89.18006434 -0.00820447 89.18006434 -0.00820447 90.75445631 -0.00843897 C92.84416878 -0.00875868 94.93388125 -0.00908289 97.02359372 -0.00941156 C116.63970491 -0.0122662 136.25581142 -0.00897958 155.87192184 -0.00361119 C172.71999358 0.00085683 189.56805844 0.00008089 206.41613007 -0.00452995 C225.95988246 -0.00987599 245.50363076 -0.01199151 265.04738379 -0.00891769 C267.12960402 -0.00859912 269.21182426 -0.00828475 271.29404449 -0.00797462 C272.83096476 -0.00774321 272.83096476 -0.00774321 274.39893392 -0.00750712 C281.63510011 -0.00664206 288.87126371 -0.00810462 296.1074295 -0.01045418 C304.92044387 -0.01325271 313.73344932 -0.01251279 322.54646266 -0.00717343 C327.04687149 -0.00453714 331.54726544 -0.00353016 336.04767418 -0.00682259 C340.1618164 -0.00978701 344.27592984 -0.00819026 348.39006943 -0.00284503 C349.88397853 -0.00172148 351.37789004 -0.00231068 352.87179762 -0.00472082 C354.89149443 -0.00773103 356.91119798 -0.00406679 358.93089294 0 C360.0560593 0.00016235 361.18122565 0.0003247 362.34048796 0.00049198 C364.96544647 0.12584114 364.96544647 0.12584114 366.96544647 1.12584114 C366.96544647 2.44584114 366.96544647 3.76584114 366.96544647 5.12584114 C364.21248913 6.50231981 362.01378599 6.25123745 358.93089294 6.25168228 C357.63580449 6.25429003 356.34071603 6.25689778 355.00638247 6.25958455 C353.55552183 6.25742214 352.10466133 6.25516547 350.65380096 6.25282478 C349.12319893 6.25397594 347.59259716 6.25556342 346.06199598 6.25755203 C341.84038458 6.26174616 337.61879564 6.25965428 333.39718413 6.25656581 C328.85044305 6.25431227 324.30370594 6.25779109 319.75696564 6.26054573 C310.84372478 6.26500292 301.93049232 6.26402719 293.01725113 6.26113309 C285.77618155 6.25887886 278.53511433 6.25856662 271.29404449 6.25965691 C269.7508286 6.25988676 269.7508286 6.25988676 268.17643663 6.26012125 C266.08672416 6.26044096 263.99701169 6.26076517 261.90729922 6.26109384 C242.29118804 6.26394848 222.67508152 6.26066186 203.05897111 6.25529347 C186.21089936 6.25082545 169.3628345 6.25160139 152.51476288 6.25621223 C132.97101048 6.26155828 113.42726218 6.26367379 93.88350916 6.26059997 C91.80128892 6.26028141 89.71906869 6.25996704 87.63684845 6.25965691 C86.09992819 6.25942549 86.09992819 6.25942549 84.53195903 6.2591894 C77.29579284 6.25832434 70.05962923 6.2597869 62.82346344 6.26213646 C54.01044908 6.26493499 45.19744363 6.26419507 36.38443029 6.25885572 C31.88402146 6.25621942 27.3836275 6.25521244 22.88321877 6.25850487 C18.76907655 6.26146929 14.6549631 6.25987255 10.54082352 6.25452732 C9.04691441 6.25340376 7.55300291 6.25399296 6.05909532 6.2564031 C4.03939851 6.25941331 2.01969496 6.25574907 0 6.25168228 C-1.12516635 6.25151993 -2.25033271 6.25135758 -3.40959501 6.2511903 C-6.03455353 6.12584114 -6.03455353 6.12584114 -8.03455353 5.12584114 C-8.03455353 3.80584114 -8.03455353 2.48584114 -8.03455353 1.12584114 C-5.28159619 -0.25063753 -3.08289305 0.00044484 0 0 Z " fill="#FFFFFF" transform="translate(73.03455352783203,263.87415885925293)"/>
<path d="M0 0 C0.99 0.27070312 0.99 0.27070312 2 0.546875 C12.29110492 3.45162236 21.63536863 7.93957834 31 13 C32.61068359 13.86818359 32.61068359 13.86818359 34.25390625 14.75390625 C46.48666102 21.6278532 56.88830808 30.3794474 67 40 C67.69609375 40.63164062 68.3921875 41.26328125 69.109375 41.9140625 C87.56178945 59.22273226 100.30382036 83.64419433 107.3125 107.6875 C107.67649902 108.93321777 107.67649902 108.93321777 108.04785156 110.20410156 C111.278758 121.88014959 112.29682408 133.22533717 112.125 145.3125 C112.11597656 146.54162109 112.10695313 147.77074219 112.09765625 149.03710938 C112.07440453 152.02495544 112.04173123 155.01236484 112 158 C110.68 157.67 109.36 157.34 108 157 C108.05220703 155.43378906 108.05220703 155.43378906 108.10546875 153.8359375 C108.86653643 120.51039801 99.67056888 87.53809586 79 61 C78.03513672 59.72382813 78.03513672 59.72382813 77.05078125 58.421875 C54.1904166 28.93061351 23.61975411 9.41834999 -13 2 C-14.0828125 1.77183594 -15.165625 1.54367188 -16.28125 1.30859375 C-34.52227609 -1.91970666 -53.95963782 -0.91888017 -72 3 C-72.99 3.20882812 -72.99 3.20882812 -74 3.421875 C-84.26011555 5.65593242 -93.58795523 9.46438418 -103 14 C-103.94359375 14.44835205 -103.94359375 14.44835205 -104.90625 14.90576172 C-124.90017003 24.53304248 -142.65473861 39.30250021 -156 57 C-156.78761719 58.010625 -157.57523438 59.02125 -158.38671875 60.0625 C-180.43150741 89.02321545 -188.35426495 122.21923974 -188 158 C-189.32 158 -190.64 158 -192 158 C-192.63860956 128.37179149 -192.63860956 128.37179149 -189 114 C-188.75056641 112.977854 -188.75056641 112.977854 -188.49609375 111.93505859 C-181.46301841 83.78322089 -166.02136245 59.74006055 -146 39 C-145.46068848 38.43659912 -144.92137695 37.87319824 -144.36572266 37.29272461 C-140.37601381 33.20173423 -136.20967759 29.59448347 -131.625 26.1875 C-130.93873535 25.67687012 -130.2524707 25.16624023 -129.54541016 24.64013672 C-92.31341443 -2.55195987 -44.77664476 -12.41000641 0 0 Z " fill="#FFFFFF" transform="translate(296,104)"/>
<path d="M0 0 C2.71937728 0.04962367 4.44971148 0.44469482 6.39257812 2.40527344 C7.90928967 4.35548182 9.3384699 6.34734586 10.75 8.375 C11.81207651 9.84369729 12.87588871 11.31114096 13.94140625 12.77734375 C14.46105957 13.49905762 14.98071289 14.22077148 15.51611328 14.96435547 C38.83185869 46.94966071 74.97076401 68.61786078 114 75 C115.11890625 75.18304688 116.2378125 75.36609375 117.390625 75.5546875 C134.90464365 77.64063148 154.9394654 77.49089895 172 73 C172.79696289 72.80664062 173.59392578 72.61328125 174.41503906 72.4140625 C199.47001083 66.29895075 221.39073164 54.63779083 240.47753906 37.34521484 C241.92969754 36.06211779 243.44445073 34.85091848 244.9609375 33.64453125 C251.51270077 28.21463789 256.57555445 21.11815949 261.6875 14.375 C262.51991211 13.28832031 262.51991211 13.28832031 263.36914062 12.1796875 C265.78162292 9.01276662 268.09195886 5.88917676 270.14453125 2.4765625 C270.75683594 1.65929687 271.36914062 0.84203125 272 0 C273.32 0 274.64 0 276 0 C268.59895766 20.86096908 247.24267054 39.32425759 230 52 C229.41089844 52.43344727 228.82179688 52.86689453 228.21484375 53.31347656 C202.13049978 72.21745991 171.21256249 81.22182028 139.1875 81.25 C138.49814362 81.25067474 137.80878723 81.25134949 137.09854126 81.25204468 C125.83707907 81.23457644 114.99276854 80.57919734 104 78 C102.86715576 77.73461426 102.86715576 77.73461426 101.71142578 77.46386719 C74.5768826 70.88614037 51.63217148 57.95314545 31.21875 39.0078125 C29.03693228 36.97160729 29.03693228 36.97160729 26.65625 35.2421875 C20.32178356 29.89515259 15.34140935 23.05010969 10.3125 16.5 C9.75755859 15.79230469 9.20261719 15.08460938 8.63085938 14.35546875 C5.11011858 9.77557525 2.42728762 5.24435866 0 0 Z " fill="#FFFFFF" transform="translate(117,328)"/>
<path d="M0 0 C1.65 0 3.3 0 5 0 C7.02055843 4.39251833 8.40895235 8.15340923 9 13 C9.66 13 10.32 13 11 13 C11 8.71 11 4.42 11 0 C12.65 0.33 14.3 0.66 16 1 C16.16808419 3.10405391 16.33441948 5.20824758 16.5 7.3125 C16.5928125 8.48425781 16.685625 9.65601563 16.78125 10.86328125 C17.08402839 15.20490714 16.84325585 19.35389491 16.5 23.6875 C16.36078125 25.45673828 16.36078125 25.45673828 16.21875 27.26171875 C16.1465625 28.16535156 16.074375 29.06898438 16 30 C14.02 30 12.04 30 10 30 C8.68 26.37 7.36 22.74 6 19 C5.67 22.63 5.34 26.26 5 30 C3.35 30 1.7 30 0 30 C-0.06058594 29.09636719 -0.12117188 28.19273437 -0.18359375 27.26171875 C-0.26738281 26.08222656 -0.35117187 24.90273438 -0.4375 23.6875 C-0.51871094 22.51574219 -0.59992188 21.34398437 -0.68359375 20.13671875 C-0.8867371 16.97409042 -0.8867371 16.97409042 -2 14 C-1.34 14 -0.68 14 0 14 C0 9.38 0 4.76 0 0 Z " fill="#FFFFFF" transform="translate(443,279)"/>
<path d="M0 0 C1.65 0 3.3 0 5 0 C7.02055843 4.39251833 8.40895235 8.15340923 9 13 C9.66 13 10.32 13 11 13 C11 8.71 11 4.42 11 0 C12.65 0.33 14.3 0.66 16 1 C16.16808419 3.10405391 16.33441948 5.20824758 16.5 7.3125 C16.5928125 8.48425781 16.685625 9.65601563 16.78125 10.86328125 C17.08402839 15.20490714 16.84325585 19.35389491 16.5 23.6875 C16.36078125 25.45673828 16.36078125 25.45673828 16.21875 27.26171875 C16.1465625 28.16535156 16.074375 29.06898438 16 30 C14.02 30 12.04 30 10 30 C8.68 26.37 7.36 22.74 6 19 C5.67 22.63 5.34 26.26 5 30 C3.35 30 1.7 30 0 30 C-0.06058594 29.09636719 -0.12117188 28.19273437 -0.18359375 27.26171875 C-0.26738281 26.08222656 -0.35117187 24.90273438 -0.4375 23.6875 C-0.51871094 22.51574219 -0.59992188 21.34398437 -0.68359375 20.13671875 C-0.8867371 16.97409042 -0.8867371 16.97409042 -2 14 C-1.34 14 -0.68 14 0 14 C0 9.38 0 4.76 0 0 Z " fill="#FFFFFF" transform="translate(403,279)"/>
<path d="M0 0 C1.65 0 3.3 0 5 0 C7.02055843 4.39251833 8.40895235 8.15340923 9 13 C9.66 13 10.32 13 11 13 C11 8.71 11 4.42 11 0 C12.65 0.33 14.3 0.66 16 1 C16.16808419 3.10405391 16.33441948 5.20824758 16.5 7.3125 C16.5928125 8.48425781 16.685625 9.65601563 16.78125 10.86328125 C17.08402839 15.20490714 16.84325585 19.35389491 16.5 23.6875 C16.36078125 25.45673828 16.36078125 25.45673828 16.21875 27.26171875 C16.1465625 28.16535156 16.074375 29.06898438 16 30 C14.02 30 12.04 30 10 30 C8.68 26.37 7.36 22.74 6 19 C5.67 22.63 5.34 26.26 5 30 C3.35 30 1.7 30 0 30 C-0.06058594 29.09636719 -0.12117188 28.19273437 -0.18359375 27.26171875 C-0.26738281 26.08222656 -0.35117188 24.90273438 -0.4375 23.6875 C-0.51871094 22.51574219 -0.59992188 21.34398437 -0.68359375 20.13671875 C-0.8867371 16.97409042 -0.8867371 16.97409042 -2 14 C-1.34 14 -0.68 14 0 14 C0 9.38 0 4.76 0 0 Z " fill="#FFFFFF" transform="translate(117,279)"/>
<path d="M0 0 C3.88685491 0.08373835 6.3571718 0.44483326 9.25 3.25 C10.50374165 7.37945676 10.51768165 11.13003465 9.25 15.25 C9.58 15.91 9.91 16.57 10.25 17.25 C10.74167501 21.42520743 10.87597924 25.02785006 8.9375 28.8125 C4.58926401 31.13830065 0.07751646 30.54963895 -4.75 30.25 C-4.81058594 29.34636719 -4.87117187 28.44273437 -4.93359375 27.51171875 C-5.01738281 26.33222656 -5.10117188 25.15273438 -5.1875 23.9375 C-5.26871094 22.76574219 -5.34992188 21.59398437 -5.43359375 20.38671875 C-5.6367371 17.22409042 -5.6367371 17.22409042 -6.75 14.25 C-6.09 14.25 -5.43 14.25 -4.75 14.25 C-4.76160156 13.32316406 -4.77320313 12.39632813 -4.78515625 11.44140625 C-4.79417969 10.24386719 -4.80320313 9.04632813 -4.8125 7.8125 C-4.82410156 6.61753906 -4.83570313 5.42257812 -4.84765625 4.19140625 C-4.70241392 -0.18329279 -4.52369635 0.30157976 0 0 Z M1.25 6.25 C0.92 7.9 0.59 9.55 0.25 11.25 C1.57 11.25 2.89 11.25 4.25 11.25 C4.25 9.6 4.25 7.95 4.25 6.25 C3.26 6.25 2.27 6.25 1.25 6.25 Z M1.25 17.25 C-0.10618499 18.37534105 -0.10618499 18.37534105 0.1875 21.3125 C0.208125 22.281875 0.22875 23.25125 0.25 24.25 C1.57 24.25 2.89 24.25 4.25 24.25 C4.94159401 22.40274948 4.94159401 22.40274948 5.25 20.25 C4.59 19.26 3.93 18.27 3.25 17.25 C2.59 17.25 1.93 17.25 1.25 17.25 Z " fill="#FFFFFF" transform="translate(248.75,278.75)"/>
<path d="M0 0 C2.83164444 1.58886716 3.82902116 2.46448137 4.828125 5.59375 C4.96734375 6.5528125 5.1065625 7.511875 5.25 8.5 C5.39953125 9.4590625 5.5490625 10.418125 5.703125 11.40625 C6.19008583 15.66074984 5.69811634 19.53596593 5.12109375 23.74609375 C4.99634361 26.06805607 5.43553434 27.7658544 6 30 C5.67 30.66 5.34 31.32 5 32 C0.03230173 31.89389382 -3.83189126 31.76284652 -8.0625 29 C-10.30015039 25.53525101 -10.66578791 23.13743879 -10.859375 19.0859375 C-10.92526264 16.80471165 -10.92526264 16.80471165 -12 14 C-11.34 14 -10.68 14 -10 14 C-10.04640625 13.32453125 -10.0928125 12.6490625 -10.140625 11.953125 C-10.43405676 4.70116861 -10.43405676 4.70116861 -8.375 1.375 C-5.29454763 -0.40841979 -3.50989896 -0.51186027 0 0 Z M-3 5 C-3.99 5.495 -3.99 5.495 -5 6 C-5 11.94 -5 17.88 -5 24 C-3.68 24.33 -2.36 24.66 -1 25 C-1 18.73 -1 12.46 -1 6 C-1.66 5.67 -2.32 5.34 -3 5 Z " fill="#FFFFFF" transform="translate(64,279)"/>
<path d="M0 0 C3.53096422 0.17654821 5.67302571 0.51714253 8.75 2.1875 C11.96180548 7.00520822 11.08361679 12.11166221 10.1875 17.6875 C9.64775824 22.00543411 10.11871393 25.9044668 10.75 30.1875 C9.1 30.1875 7.45 30.1875 5.75 30.1875 C4.76 26.8875 3.77 23.5875 2.75 20.1875 C1.16727399 21.77022601 1.40264253 23.56784003 1.1875 25.75 C1.06181641 26.98943359 1.06181641 26.98943359 0.93359375 28.25390625 C0.87300781 28.89199219 0.81242187 29.53007812 0.75 30.1875 C-0.9 30.1875 -2.55 30.1875 -4.25 30.1875 C-4.41808419 28.08344609 -4.58441948 25.97925242 -4.75 23.875 C-4.8428125 22.70324219 -4.935625 21.53148437 -5.03125 20.32421875 C-5.33176546 16.01504177 -5.12266566 11.86664503 -4.8125 7.5625 C-4.73128906 6.39460938 -4.65007812 5.22671875 -4.56640625 4.0234375 C-4.11825125 0.00664087 -4.11683485 0.2375097 0 0 Z M1.75 6.1875 C0.65341064 9.47726808 0.95046862 10.90053767 1.75 14.1875 C3.07 13.8575 4.39 13.5275 5.75 13.1875 C5.75 11.2075 5.75 9.2275 5.75 7.1875 C4.43 6.8575 3.11 6.5275 1.75 6.1875 Z " fill="#FFFFFF" transform="translate(348.25,278.8125)"/>
<path d="M0 0 C2.375 1.375 2.375 1.375 4 4 C4.32654555 7.36025909 4.23114165 10.63560493 4 14 C4.66 14 5.32 14 6 14 C5.77065591 15.91924787 5.51565657 17.8354406 5.25 19.75 C5.11078125 20.81734375 4.9715625 21.8846875 4.828125 22.984375 C3.87394995 26.45901246 2.83649927 27.82086461 0 30 C-3.5 30.5625 -3.5 30.5625 -7 30 C-10.20914342 27.29756344 -11.19826142 24.91611232 -11.75 20.875 C-12.02801783 16.56572367 -11.91342327 12.75505957 -11.25 8.5 C-11.11078125 7.5409375 -10.9715625 6.581875 -10.828125 5.59375 C-9.11598173 0.23118807 -5.25057564 -0.76570895 0 0 Z M-4 5 C-5.19341752 5.97332261 -5.19341752 5.97332261 -5.11352539 7.76586914 C-5.10828857 8.51473389 -5.10305176 9.26359863 -5.09765625 10.03515625 C-5.09443359 10.84404297 -5.09121094 11.65292969 -5.08789062 12.48632812 C-5.07951172 13.33646484 -5.07113281 14.18660156 -5.0625 15.0625 C-5.05798828 15.91650391 -5.05347656 16.77050781 -5.04882812 17.65039062 C-5.03700373 19.76695663 -5.01906769 21.88348685 -5 24 C-4.01 24.33 -3.02 24.66 -2 25 C-0.41964226 21.83928451 -0.77424654 18.46725496 -0.75 15 C-0.729375 14.26265625 -0.70875 13.5253125 -0.6875 12.765625 C-0.63528383 10.3737071 -0.63528383 10.3737071 -1 7 C-1.99 6.34 -2.98 5.68 -4 5 Z " fill="#FFFFFF" transform="translate(277,279)"/>
<path d="M0 0 C2.3125 1.4375 2.3125 1.4375 4 4 C5.29486859 9.93028053 5.15007759 16.0340582 4.75 22.0625 C4.68039063 23.34833984 4.68039063 23.34833984 4.609375 24.66015625 C4 27 4 27 2.17578125 28.78515625 C-1.00449934 30.56086049 -3.42724423 30.38975517 -7 30 C-9.28489658 28.34890923 -9.91799173 27.40869694 -10.4765625 24.625 C-10.52554688 23.75875 -10.57453125 22.8925 -10.625 22 C-10.81083965 19.02656556 -11.04952922 16.85141235 -12 14 C-11.34 14 -10.68 14 -10 14 C-10.04640625 13.32453125 -10.0928125 12.6490625 -10.140625 11.953125 C-10.43405676 4.70116861 -10.43405676 4.70116861 -8.375 1.375 C-5.27095134 -0.42208081 -3.53343747 -0.58890625 0 0 Z M-4 5 C-5.19341752 5.97332261 -5.19341752 5.97332261 -5.11352539 7.76586914 C-5.10828857 8.51473389 -5.10305176 9.26359863 -5.09765625 10.03515625 C-5.09443359 10.84404297 -5.09121094 11.65292969 -5.08789062 12.48632812 C-5.07951172 13.33646484 -5.07113281 14.18660156 -5.0625 15.0625 C-5.05798828 15.91650391 -5.05347656 16.77050781 -5.04882812 17.65039062 C-5.03700373 19.76695663 -5.01906769 21.88348685 -5 24 C-3.68 24 -2.36 24 -1 24 C-1 18.06 -1 12.12 -1 6 C-1.99 5.67 -2.98 5.34 -4 5 Z " fill="#FFFFFF" transform="translate(152,279)"/>
<path d="M0 0 C2.625 -0.1875 2.625 -0.1875 5 0 C6.79275866 3.11910856 7.34290718 5.67682428 7.625 9.25 C7.69976562 10.14203125 7.77453125 11.0340625 7.8515625 11.953125 C7.90054688 12.62859375 7.94953125 13.3040625 8 14 C8.66 14 9.32 14 10 14 C9.979375 15.175625 9.95875 16.35125 9.9375 17.5625 C9.92713534 20.4749693 10.14608711 23.02260976 10.5625 25.9375 C10.706875 26.948125 10.85125 27.95875 11 29 C10 30 10 30 7.4375 30.0625 C6.633125 30.041875 5.82875 30.02125 5 30 C4.67 28.35 4.34 26.7 4 25 C3.01 25 2.02 25 1 25 C0.01 27.475 0.01 27.475 -1 30 C-2.65 30 -4.3 30 -6 30 C-5.67 24.72 -5.34 19.44 -5 14 C-4.34 14 -3.68 14 -3 14 C-2.95101562 13.24074219 -2.90203125 12.48148437 -2.8515625 11.69921875 C-2.77679688 10.70535156 -2.70203125 9.71148437 -2.625 8.6875 C-2.55539063 7.70136719 -2.48578125 6.71523438 -2.4140625 5.69921875 C-2 3 -2 3 0 0 Z M2 14 C3 18 3 18 3 18 Z " fill="#FFFFFF" transform="translate(37,279)"/>
<path d="M0 0 C0.28875 1.03125 0.5775 2.0625 0.875 3.125 C2.57379811 9.19861469 2.57379811 9.19861469 5 15 C4.34 15 3.68 15 3 15 C3.144375 15.67546875 3.28875 16.3509375 3.4375 17.046875 C3.623125 17.93890625 3.80875 18.8309375 4 19.75 C4.185625 20.63171875 4.37125 21.5134375 4.5625 22.421875 C5 25 5 25 5 29 C3.33388095 29.042721 1.66617115 29.04063832 0 29 C-1 28 -1 28 -1.0625 25.4375 C-1.041875 24.633125 -1.02125 23.82875 -1 23 C-2.32 23 -3.64 23 -5 23 C-5.33 24.98 -5.66 26.96 -6 29 C-7.65 29 -9.3 29 -11 29 C-11 23.72 -11 18.44 -11 13 C-10.34 13 -9.68 13 -9 13 C-8.87882812 12.07316406 -8.75765625 11.14632813 -8.6328125 10.19140625 C-8.46523438 8.99386719 -8.29765625 7.79632813 -8.125 6.5625 C-7.88136719 4.77005859 -7.88136719 4.77005859 -7.6328125 2.94140625 C-7.31957031 1.48541016 -7.31957031 1.48541016 -7 0 C-4.3333581 -1.33332095 -2.83319697 -0.67102033 0 0 Z M-4 13 C-4 14.32 -4 15.64 -4 17 C-3.34 17 -2.68 17 -2 17 C-2.66 15.68 -3.32 14.36 -4 13 Z " fill="#FFFFFF" transform="translate(377,280)"/>
<path d="M0 0 C0.99 0.33 1.98 0.66 3 1 C3.33 8.92 3.66 16.84 4 25 C4.99 25 5.98 25 7 25 C7.33 17.08 7.66 9.16 8 1 C9.32 0.67 10.64 0.34 12 0 C13.85403268 1.85403268 13.3889001 4.87846811 13.5625 7.375 C13.68818359 9.11910156 13.68818359 9.11910156 13.81640625 10.8984375 C14.16370532 16.76557498 14.37685949 23.10134844 11.8125 28.5 C9.20903274 30.65459359 7.35840535 30.93283189 4 31 C1.25 30.25 1.25 30.25 -1 28 C-3.04496545 21.0916193 -3.08340038 14.50391629 -2.625 7.375 C-2.55539063 6.20710938 -2.48578125 5.03921875 -2.4140625 3.8359375 C-2.27742187 2.90007812 -2.14078125 1.96421875 -2 1 C-1.34 0.67 -0.68 0.34 0 0 Z " fill="#FFFFFF" transform="translate(201,279)"/>
<path d="M0 0 C0.99 0.33 1.98 0.66 3 1 C3.33 8.92 3.66 16.84 4 25 C4.99 25 5.98 25 7 25 C7.33 17.08 7.66 9.16 8 1 C9.32 0.67 10.64 0.34 12 0 C13.85403268 1.85403268 13.3889001 4.87846811 13.5625 7.375 C13.68818359 9.11910156 13.68818359 9.11910156 13.81640625 10.8984375 C14.16370532 16.76557498 14.37685949 23.10134844 11.8125 28.5 C9.20903274 30.65459359 7.35840535 30.93283189 4 31 C1.25 30.25 1.25 30.25 -1 28 C-3.04496545 21.0916193 -3.08340038 14.50391629 -2.625 7.375 C-2.55539063 6.20710938 -2.48578125 5.03921875 -2.4140625 3.8359375 C-2.27742188 2.90007812 -2.14078125 1.96421875 -2 1 C-1.34 0.67 -0.68 0.34 0 0 Z " fill="#FFFFFF" transform="translate(80,279)"/>
<path d="M0 0 C1.875 1.125 1.875 1.125 3 3 C3.1875 6.6875 3.1875 6.6875 3 10 C1.35 10 -0.3 10 -2 10 C-2.103125 9.360625 -2.20625 8.72125 -2.3125 8.0625 C-2.539375 7.381875 -2.76625 6.70125 -3 6 C-3.99 5.67 -4.98 5.34 -6 5 C-5.67 10.94 -5.34 16.88 -5 23 C-4.34 23 -3.68 23 -3 23 C-2.67 21.02 -2.34 19.04 -2 17 C-2.66 17 -3.32 17 -4 17 C-4 15.35 -4 13.7 -4 12 C-1.69 12 0.62 12 3 12 C3.08097324 14.27024968 3.13917704 16.54132075 3.1875 18.8125 C3.23970703 20.70935547 3.23970703 20.70935547 3.29296875 22.64453125 C3 26 3 26 1.703125 27.921875 C-1.2217106 29.77337643 -3.65271628 29.41106993 -7 29 C-9.375 27.5625 -9.375 27.5625 -11 25 C-12.50348857 17.94124857 -12.56565814 10.04546161 -11 3 C-7.58953229 -1.19000319 -5.07677264 -1.65546934 0 0 Z " fill="#FFFFFF" transform="translate(479,280)"/>
<path d="M0 0 C1.97909398 -0.02686553 3.95828971 -0.04633375 5.9375 -0.0625 C7.03964844 -0.07410156 8.14179688 -0.08570313 9.27734375 -0.09765625 C12 0 12 0 13 1 C13.04063832 2.66617115 13.042721 4.33388095 13 6 C11.68 6 10.36 6 9 6 C9.165 7.258125 9.33 8.51625 9.5 9.8125 C10.11768861 14.52237563 9.87481678 18.95543817 9.5 23.6875 C9.4071875 24.86699219 9.314375 26.04648437 9.21875 27.26171875 C9.1465625 28.16535156 9.074375 29.06898438 9 30 C7.33388095 30.042721 5.66617115 30.04063832 4 30 C2.21437648 28.21437648 2.62043601 25.54672436 2.4375 23.125 C2.35371094 22.05507813 2.26992188 20.98515625 2.18359375 19.8828125 C1.87872252 15.0956855 2.37848586 10.73904529 3 6 C1.68 5.67 0.36 5.34 -1 5 C-0.67 3.35 -0.34 1.7 0 0 Z " fill="#FFFFFF" transform="translate(324,279)"/>
<path d="M0 0 C1.51400391 0.01740234 1.51400391 0.01740234 3.05859375 0.03515625 C4.07050781 0.04417969 5.08242187 0.05320312 6.125 0.0625 C7.29869141 0.07990234 7.29869141 0.07990234 8.49609375 0.09765625 C8.82609375 1.74765625 9.15609375 3.39765625 9.49609375 5.09765625 C7.18609375 5.42765625 4.87609375 5.75765625 2.49609375 6.09765625 C2.49609375 8.07765625 2.49609375 10.05765625 2.49609375 12.09765625 C4.14609375 12.42765625 5.79609375 12.75765625 7.49609375 13.09765625 C7.16609375 14.74765625 6.83609375 16.39765625 6.49609375 18.09765625 C4.84609375 18.09765625 3.19609375 18.09765625 1.49609375 18.09765625 C1.49609375 22.05765625 1.49609375 26.01765625 1.49609375 30.09765625 C-0.15390625 30.09765625 -1.80390625 30.09765625 -3.50390625 30.09765625 C-3.56449219 29.19402344 -3.62507812 28.29039062 -3.6875 27.359375 C-3.77128906 26.17988281 -3.85507813 25.00039063 -3.94140625 23.78515625 C-4.02261719 22.61339844 -4.10382813 21.44164062 -4.1875 20.234375 C-4.39064335 17.07174667 -4.39064335 17.07174667 -5.50390625 14.09765625 C-4.84390625 14.09765625 -4.18390625 14.09765625 -3.50390625 14.09765625 C-3.51550781 13.17082031 -3.52710938 12.24398438 -3.5390625 11.2890625 C-3.54808594 10.09152344 -3.55710938 8.89398438 -3.56640625 7.66015625 C-3.57800781 6.46519531 -3.58960938 5.27023437 -3.6015625 4.0390625 C-3.47195922 0.13541183 -3.47195922 0.13541183 0 0 Z " fill="#FFFFFF" transform="translate(182.50390625,278.90234375)"/>
<path d="M0 0 C1.95825873 -0.02694851 3.91662226 -0.04637218 5.875 -0.0625 C6.96554688 -0.07410156 8.05609375 -0.08570313 9.1796875 -0.09765625 C12 0 12 0 14 1 C13.67 2.65 13.34 4.3 13 6 C11.68 6 10.36 6 9 6 C9 8.64 9 11.28 9 14 C9.66 14 10.32 14 11 14 C10.67 14.99 10.34 15.98 10 17 C9.77548542 19.22574335 9.59217122 21.45581519 9.4375 23.6875 C9.35371094 24.86699219 9.26992187 26.04648437 9.18359375 27.26171875 C9.12300781 28.16535156 9.06242188 29.06898438 9 30 C7.35 30 5.7 30 4 30 C3.93941406 29.09636719 3.87882813 28.19273437 3.81640625 27.26171875 C3.73261719 26.08222656 3.64882812 24.90273438 3.5625 23.6875 C3.48128906 22.51574219 3.40007812 21.34398437 3.31640625 20.13671875 C3.1132629 16.97409042 3.1132629 16.97409042 2 14 C2.66 14 3.32 14 4 14 C4 11.36 4 8.72 4 6 C2.35 5.67 0.7 5.34 -1 5 C-0.67 3.35 -0.34 1.7 0 0 Z " fill="#FFFFFF" transform="translate(223,279)"/>
<path d="M0 0 C1.32 0 2.64 0 4 0 C4 4.62 4 9.24 4 14 C4.66 14 5.32 14 6 14 C5.67 14.99 5.34 15.98 5 17 C4.96045766 19.33299825 4.95598268 21.66708189 5 24 C7.31 24.33 9.62 24.66 12 25 C12 26.65 12 28.3 12 30 C7.71 30 3.42 30 -1 30 C-1.60789783 22.32528985 -2.11578422 15.0528826 -1.5625 7.375 C-1.48128906 6.20710938 -1.40007812 5.03921875 -1.31640625 3.8359375 C-1 1 -1 1 0 0 Z " fill="#FFFFFF" transform="translate(291,279)"/>
<path d="M0 0 C1.32 0.33 2.64 0.66 4 1 C4 5.29 4 9.58 4 14 C4.66 14 5.32 14 6 14 C5.67 14.99 5.34 15.98 5 17 C4.77548542 19.22574335 4.59217122 21.45581519 4.4375 23.6875 C4.35371094 24.86699219 4.26992188 26.04648437 4.18359375 27.26171875 C4.12300781 28.16535156 4.06242187 29.06898438 4 30 C2.35 30 0.7 30 -1 30 C-1.06058594 29.09636719 -1.12117188 28.19273437 -1.18359375 27.26171875 C-1.26738281 26.08222656 -1.35117187 24.90273438 -1.4375 23.6875 C-1.51871094 22.51574219 -1.59992188 21.34398437 -1.68359375 20.13671875 C-1.8867371 16.97409042 -1.8867371 16.97409042 -3 14 C-2.34 14 -1.68 14 -1 14 C-1.01160156 13.07316406 -1.02320313 12.14632813 -1.03515625 11.19140625 C-1.04417969 9.99386719 -1.05320312 8.79632813 -1.0625 7.5625 C-1.07410156 6.36753906 -1.08570313 5.17257812 -1.09765625 3.94140625 C-1 1 -1 1 0 0 Z " fill="#FFFFFF" transform="translate(429,279)"/>
<path d="M0 0 C1.32 0 2.64 0 4 0 C4 4.62 4 9.24 4 14 C4.66 14 5.32 14 6 14 C5.67 14.99 5.34 15.98 5 17 C4.77548542 19.22574335 4.59217122 21.45581519 4.4375 23.6875 C4.35371094 24.86699219 4.26992188 26.04648437 4.18359375 27.26171875 C4.12300781 28.16535156 4.06242187 29.06898438 4 30 C2.35 30 0.7 30 -1 30 C-1.16808419 27.89594609 -1.33441948 25.79175242 -1.5 23.6875 C-1.5928125 22.51574219 -1.685625 21.34398437 -1.78125 20.13671875 C-2.08176546 15.82754177 -1.87266566 11.67914503 -1.5625 7.375 C-1.48128906 6.20710938 -1.40007812 5.03921875 -1.31640625 3.8359375 C-1 1 -1 1 0 0 Z " fill="#FFFFFF" transform="translate(389,279)"/>
<path d="M0 0 C1.32 0.33 2.64 0.66 4 1 C4 5.29 4 9.58 4 14 C4.66 14 5.32 14 6 14 C5.67 14.99 5.34 15.98 5 17 C4.77548542 19.22574335 4.59217122 21.45581519 4.4375 23.6875 C4.35371094 24.86699219 4.26992187 26.04648437 4.18359375 27.26171875 C4.12300781 28.16535156 4.06242187 29.06898438 4 30 C2.35 30 0.7 30 -1 30 C-1.06058594 29.09636719 -1.12117188 28.19273437 -1.18359375 27.26171875 C-1.26738281 26.08222656 -1.35117188 24.90273438 -1.4375 23.6875 C-1.51871094 22.51574219 -1.59992188 21.34398437 -1.68359375 20.13671875 C-1.8867371 16.97409042 -1.8867371 16.97409042 -3 14 C-2.34 14 -1.68 14 -1 14 C-1.01160156 13.07316406 -1.02320312 12.14632813 -1.03515625 11.19140625 C-1.04417969 9.99386719 -1.05320312 8.79632813 -1.0625 7.5625 C-1.07410156 6.36753906 -1.08570312 5.17257812 -1.09765625 3.94140625 C-1 1 -1 1 0 0 Z " fill="#FFFFFF" transform="translate(103,279)"/>
<path d="M0 0 C3.96 0 7.92 0 12 0 C12 0.66 12 1.32 12 2 C8.7 2 5.4 2 2 2 C2 3.98 2 5.96 2 8 C4.97 8 7.94 8 11 8 C11 8.66 11 9.32 11 10 C8.03 10 5.06 10 2 10 C2 12.31 2 14.62 2 17 C5.3 17 8.6 17 12 17 C12.33 17.66 12.66 18.32 13 19 C8.71 19 4.42 19 0 19 C0 12.73 0 6.46 0 0 Z " fill="#FFFFFF" transform="translate(135,232)"/>
<path d="M0 0 C2.3125 1.5 2.3125 1.5 4 4 C4.82443434 8.06387835 4.60581932 11.00645632 2.4375 14.5625 C0 16 0 16 -3.625 15.9375 C-7 15 -7 15 -9 12 C-9.66769706 4.98918083 -9.66769706 4.98918083 -7.3125 1.5 C-4.51333204 -0.31567651 -3.27103386 -0.65420677 0 0 Z M-7 4 C-7.47065161 8.05822608 -7.47065161 8.05822608 -7 12 C-4.6450037 14.08216876 -4.6450037 14.08216876 -2 15 C0.15811388 14.05270463 0.15811388 14.05270463 2 12 C2.49986848 9.15772455 2.2791285 6.93084925 2 4 C0.17296773 1.7508092 0.17296773 1.7508092 -2.5 1.75 C-5.17296773 1.7508092 -5.17296773 1.7508092 -7 4 Z " fill="#FFFFFF" transform="translate(354,235)"/>
<path d="M0 0 C3.465 1.98 3.465 1.98 7 4 C6.39249174 8.13105614 5.18884505 11.43299325 3 15 C1.1875 16.125 1.1875 16.125 -1 16 C-4.25 14.0625 -4.25 14.0625 -7 12 C-5.44298069 7.32894208 -2.91552627 3.91294315 0 0 Z M0 2 C-0.66 3.32 -1.32 4.64 -2 6 C-0.19038423 7.62831762 -0.19038423 7.62831762 2 9 C2.99 8.67 3.98 8.34 5 8 C5 6.68 5 5.36 5 4 C2.525 3.01 2.525 3.01 0 2 Z M-3 7 C-3.66 8.65 -4.32 10.3 -5 12 C-2.35261084 13.4606285 -1.10551666 14 2 14 C2.33 13.01 2.66 12.02 3 11 C0.28996707 8.32668287 0.28996707 8.32668287 -3 7 Z " fill="#FFFFFF" transform="translate(167,346)"/>
<path d="M0 0 C0.66 0 1.32 0 2 0 C3.5078125 1.96875 3.5078125 1.96875 5.125 4.5 C5.66382813 5.3353125 6.20265625 6.170625 6.7578125 7.03125 C7.16773438 7.6809375 7.57765625 8.330625 8 9 C9.96822886 7.03177114 9.66248381 3.65191291 10 1 C10.66 1 11.32 1 12 1 C11.67 5.29 11.34 9.58 11 14 C10.01 14 9.02 14 8 14 C6.68359375 12.28515625 6.68359375 12.28515625 5.4375 10.0625 C3.79661289 6.93912598 3.79661289 6.93912598 1 5 C1 7.97 1 10.94 1 14 C0.34 14 -0.32 14 -1 14 C-0.67 9.38 -0.34 4.76 0 0 Z " fill="#FFFFFF" transform="translate(236,372)"/>
<path d="M0 0 C0.66 0 1.32 0 2 0 C2.83819158 1.62249941 3.6704116 3.24808497 4.5 4.875 C4.9640625 5.77992188 5.428125 6.68484375 5.90625 7.6171875 C7 10 7 10 7 12 C2.61110675 11.33501617 -0.9811485 9.81242323 -5 8 C-4.484375 8.928125 -3.96875 9.85625 -3.4375 10.8125 C-2 14 -2 14 -3 17 C-4.98 13.04 -6.96 9.08 -9 5 C-4.00124645 5.83312559 -1.28227788 6.65494306 3 9 C2.01 6.03 1.02 3.06 0 0 Z " fill="#FFFFFF" transform="translate(331,354)"/>
<path d="M0 0 C2.54131358 2.30283254 4.07110295 4.67313793 5.6875 7.6875 C6.12449219 8.49574219 6.56148437 9.30398437 7.01171875 10.13671875 C7.50091797 11.05904297 7.50091797 11.05904297 8 12 C6 13 6 13 3.3984375 12.22265625 C2.40070313 11.83980469 1.40296875 11.45695313 0.375 11.0625 C-1.12933594 10.49208984 -1.12933594 10.49208984 -2.6640625 9.91015625 C-3.43492187 9.60980469 -4.20578125 9.30945313 -5 9 C-4.319375 10.11375 -3.63875 11.2275 -2.9375 12.375 C-1.77734375 14.2734375 -1.77734375 14.2734375 -1 16 C-1.33 16.66 -1.66 17.32 -2 18 C-2.9834496 16.56542672 -3.96160921 15.12722594 -4.9375 13.6875 C-5.48277344 12.88699219 -6.02804688 12.08648437 -6.58984375 11.26171875 C-8 9 -8 9 -9 6 C-4.51474352 6.656379 -0.33085971 7.70074209 4 9 C3.34 8.071875 2.68 7.14375 2 6.1875 C0 3 0 3 0 0 Z " fill="#FFFFFF" transform="translate(186,136)"/>
<path d="M0 0 C0.66 0 1.32 0 2 0 C3.5078125 2.1875 3.5078125 2.1875 5.125 5 C5.66382813 5.928125 6.20265625 6.85625 6.7578125 7.8125 C7.37269531 8.8953125 7.37269531 8.8953125 8 10 C8.66 7.03 9.32 4.06 10 1 C10.33 1 10.66 1 11 1 C11.18451025 10.41002278 11.18451025 10.41002278 10 15 C6.71211176 11.88983545 4.16264012 8.98381075 2 5 C1.34 7.64 0.68 10.28 0 13 C-0.66 13 -1.32 13 -2 13 C-1.85915204 11.20793453 -1.71216299 9.41635083 -1.5625 7.625 C-1.48128906 6.62726563 -1.40007812 5.62953125 -1.31640625 4.6015625 C-1 2 -1 2 0 0 Z " fill="#FFFFFF" transform="translate(268,119)"/>
<path d="M0 0 C0.33 1.98 0.66 3.96 1 6 C-4.75 10 -4.75 10 -7 10 C-7 10.66 -7 11.32 -7 12 C-4.36 12.33 -1.72 12.66 1 13 C1 13.66 1 14.32 1 15 C-2.63 15 -6.26 15 -10 15 C-9 10 -9 10 -6.0625 7.6875 C-3 6 -3 6 -1 6 C-1.33 4.68 -1.66 3.36 -2 2 C-4.31 2.33 -6.62 2.66 -9 3 C-8.67 2.01 -8.34 1.02 -8 0 C-4.71023192 -1.09658936 -3.28696233 -0.79953138 0 0 Z " fill="#FFFFFF" transform="translate(371,236)"/>
<path d="M0 0 C3.5 -0.3125 3.5 -0.3125 7 0 C9 2 9 2 9.125 4.4375 C9.08375 5.283125 9.0425 6.12875 9 7 C8.85295708 9.94715645 8.85295708 9.94715645 9.75 12.4375 C10 15 10 15 8.5 17.375 C6 19 6 19 2.25 18.75 C1.1775 18.5025 0.105 18.255 -1 18 C-1.33 17.01 -1.66 16.02 -2 15 C0.97 15.33 3.94 15.66 7 16 C7 14.35 7 12.7 7 11 C5.68 10.34 4.36 9.68 3 9 C4.32 7.68 5.64 6.36 7 5 C6.67 4.01 6.34 3.02 6 2 C3.36 2.33 0.72 2.66 -2 3 C-1.34 2.01 -0.68 1.02 0 0 Z " fill="#FFFFFF" transform="translate(377,236)"/>
<path d="M0 0 C2.87915173 2.32189656 2.98552483 3.88213077 3.4375 7.5625 C3 11 3 11 1.25 12.875 C-0.85995174 13.92997587 -2.71617741 14.47222587 -5 15 C-5.86883706 13.42466914 -6.71959068 11.83935491 -7.5625 10.25 C-8.03816406 9.36828125 -8.51382813 8.4865625 -9.00390625 7.578125 C-10 5 -10 5 -9.77734375 2.734375 C-7.99475824 -1.24285097 -3.75177543 -0.32910311 0 0 Z M-8 3 C-7.55090939 4.48199902 -7.09043436 5.96055236 -6.625 7.4375 C-6.36976563 8.26121094 -6.11453125 9.08492187 -5.8515625 9.93359375 C-5.19117773 12.17798016 -5.19117773 12.17798016 -3 13 C-0.85146564 12.46804363 -0.85146564 12.46804363 1 11 C2.02624415 8.21448016 2.16996001 6.61185602 1.375 3.75 C0.08244275 1.78592277 0.08244275 1.78592277 -2.4375 1.125 C-5.24443417 0.73353649 -5.24443417 0.73353649 -8 3 Z " fill="#FFFFFF" transform="translate(205,130)"/>
<path d="M0 0 C7.28358209 -0.35820896 7.28358209 -0.35820896 10 1 C11.6324121 4.26482419 11.79207575 7.44676297 11 11 C8.35505622 13.41823431 6.7445372 13.95036419 3.1875 14.1875 C2.465625 14.125625 1.74375 14.06375 1 14 C-1.48063781 4.58997722 -1.48063781 4.58997722 0 0 Z M1 2 C1.33 5.3 1.66 8.6 2 12 C5.465 11.505 5.465 11.505 9 11 C9.85650653 8.19954954 9.85650653 8.19954954 10 5 C8.37419918 2.54047777 8.37419918 2.54047777 6 1 C3.0745356 0.7763932 3.0745356 0.7763932 1 2 Z " fill="#FFFFFF" transform="translate(230,120)"/>
<path d="M0 0 C2.8125 1.375 2.8125 1.375 3.6875 3.5 C3.749375 4.428125 3.749375 4.428125 3.8125 5.375 C0.84966687 7.76172669 -2.13020509 10.1103371 -5.1875 12.375 C-2.2175 12.705 0.7525 13.035 3.8125 13.375 C3.8125 14.035 3.8125 14.695 3.8125 15.375 C0.1825 15.375 -3.4475 15.375 -7.1875 15.375 C-6.1875 10.375 -6.1875 10.375 -4.55859375 8.79296875 C-3.92050781 8.38691406 -3.28242188 7.98085937 -2.625 7.5625 C-1.98433594 7.14355469 -1.34367187 6.72460938 -0.68359375 6.29296875 C-0.18988281 5.99003906 0.30382812 5.68710938 0.8125 5.375 C0.4825 4.385 0.1525 3.395 -0.1875 2.375 C-2.4975 2.705 -4.8075 3.035 -7.1875 3.375 C-7.1875 2.715 -7.1875 2.055 -7.1875 1.375 C-4.40925786 -0.54839841 -3.39528057 -0.66574129 0 0 Z " fill="#FFFFFF" transform="translate(338.1875,235.625)"/>
<path d="M0 0 C2.4375 0.6875 2.4375 0.6875 5 2 C5.8125 4.625 5.8125 4.625 6 7 C4.68 7.33 3.36 7.66 2 8 C1.67 9.65 1.34 11.3 1 13 C-0.75 13.75 -0.75 13.75 -3 14 C-5.3125 12.375 -5.3125 12.375 -7 10 C-6.75 7.25 -6.75 7.25 -6 5 C-4.68 5 -3.36 5 -2 5 C-1.855625 4.360625 -1.71125 3.72125 -1.5625 3.0625 C-1 1 -1 1 0 0 Z M0 2 C0 3.32 0 4.64 0 6 C1.98 6.495 1.98 6.495 4 7 C3.67 5.35 3.34 3.7 3 2 C2.01 2 1.02 2 0 2 Z M-4 6 C-4.33 7.65 -4.66 9.3 -5 11 C-2.525 11.495 -2.525 11.495 0 12 C0 10.35 0 8.7 0 7 C-1.32 6.67 -2.64 6.34 -4 6 Z " fill="#FFFFFF" transform="translate(352,155)"/>
<path d="M0 0 C1.97487426 1.4811557 2.83477251 2.64594109 3.875 4.875 C4.06531889 8.1104211 3.05487003 9.54741319 1 12 C-1.875 13.125 -1.875 13.125 -5 13 C-7.9375 11 -7.9375 11 -10 8 C-10.0625 4.3125 -10.0625 4.3125 -9 1 C-6.0335058 -1.54270931 -3.58456954 -1.19485651 0 0 Z M-8 2 C-8.97668651 4.36032574 -9.07090942 5.6897713 -8.5 8.1875 C-6.99704694 10.36812559 -6.99704694 10.36812559 -3.5 10.875 C-1.7675 10.936875 -1.7675 10.936875 0 11 C0.66 10.34 1.32 9.68 2 9 C1.64736215 4.49682877 1.64736215 4.49682877 -1 1 C-3.78302919 0.79127281 -5.48718205 0.74359102 -8 2 Z " fill="#FFFFFF" transform="translate(159,163)"/>
<path d="M0 0 C0.66 0 1.32 0 2 0 C1.34 1.98 0.68 3.96 0 6 C1.98 6.66 3.96 7.32 6 8 C6.99 6.68 7.98 5.36 9 4 C9.66 4.33 10.32 4.66 11 5 C9.02 8.63 7.04 12.26 5 16 C4 14 4 14 4 10 C1.525 9.01 1.525 9.01 -1 8 C-1.66 9.32 -2.32 10.64 -3 12 C-3.66 11.67 -4.32 11.34 -5 11 C-3.35 7.37 -1.7 3.74 0 0 Z " fill="#FFFFFF" transform="translate(313,130)"/>
<path d="M0 0 C2.48307955 2.22620925 2.95155015 3.70930093 3.5 7 C3 10 3 10 0.8125 12.4375 C-2 14 -2 14 -4.625 14 C-7.57148135 12.75937627 -8.59858374 11.88068899 -10 9 C-9.92857348 5.50010028 -9.66021066 3.70736857 -7.25 1.125 C-4.52398089 -0.23800956 -3.00564685 -0.53947508 0 0 Z M-4 1 C-7.22401946 3.70224931 -7.22401946 3.70224931 -8.375 7.625 C-8.20984251 10.18227196 -8.20984251 10.18227196 -6 12 C-3.54258463 12.50014953 -3.54258463 12.50014953 -1 12 C1.00965774 10.40383995 1.00965774 10.40383995 2 8 C2.16977494 5.34872531 2.16977494 5.34872531 1 3 C-1.47636012 1.62533375 -1.47636012 1.62533375 -4 1 Z " fill="#FFFFFF" transform="translate(226,370)"/>
<path d="M0 0 C2.64 1.65 5.28 3.3 8 5 C7.01 5.495 7.01 5.495 6 6 C5.01 5.34 4.02 4.68 3 4 C2.01 4 1.02 4 0 4 C0 4.99 0 5.98 0 7 C0.99 7.66 1.98 8.32 3 9 C2.67 9.66 2.34 10.32 2 11 C-0.475 10.01 -0.475 10.01 -3 9 C-3.33 9.99 -3.66 10.98 -4 12 C-2.35 12.99 -0.7 13.98 1 15 C0.67 15.66 0.34 16.32 0 17 C-2.31 15.35 -4.62 13.7 -7 12 C-6.02296079 10.1863523 -5.04330895 8.37411183 -4.0625 6.5625 C-3.51722656 5.55316406 -2.97195313 4.54382813 -2.41015625 3.50390625 C-1 1 -1 1 0 0 Z " fill="#FFFFFF" transform="translate(331,138)"/>
<path d="M0 0 C0.33 0.66 0.66 1.32 1 2 C-1.31 2 -3.62 2 -6 2 C-5.67 2.99 -5.34 3.98 -5 5 C-1.48809191 6.22969878 -1.48809191 6.22969878 2 7 C2.33 8.65 2.66 10.3 3 12 C-0.8503105 14.56687367 -2.58569763 13.83288724 -7 13 C-7 12.67 -7 12.34 -7 12 C-4.36 12 -1.72 12 1 12 C1 10.68 1 9.36 1 8 C0.071875 8.061875 -0.85625 8.12375 -1.8125 8.1875 C-5 8 -5 8 -6.9375 6.75 C-8 5 -8 5 -7.8125 2.875 C-6.24983047 -0.73116046 -3.49849546 -0.09206567 0 0 Z " fill="#FFFFFF" transform="translate(286,371)"/>
<path d="M0 0 C-0.969375 0.2475 -1.93875 0.495 -2.9375 0.75 C-3.948125 1.1625 -4.95875 1.575 -6 2 C-6.96877057 4.03243548 -6.96877057 4.03243548 -7 6 C-3.535 5.505 -3.535 5.505 0 5 C-1.25541557 7.51083114 -2.50063488 7.87125446 -5 9 C-5 9.99 -5 10.98 -5 12 C-2.36 11.67 0.28 11.34 3 11 C0.23776722 13.76223278 -2.20706617 13.57856291 -6 14 C-9.62870159 4.58997722 -9.62870159 4.58997722 -8 0 C-4.94736336 -0.98120464 -3.05263664 -0.98120464 0 0 Z " fill="#FFFFFF" transform="translate(222,124)"/>
<path d="M0 0 C-0.33 0.66 -0.66 1.32 -1 2 C-3.97 1.505 -3.97 1.505 -7 1 C-7 2.32 -7 3.64 -7 5 C-5.576875 5.2165625 -5.576875 5.2165625 -4.125 5.4375 C-1 6 -1 6 1 7 C0.125 11.875 0.125 11.875 -1 13 C-6.52941176 13.23529412 -6.52941176 13.23529412 -9 12 C-8.67 11.34 -8.34 10.68 -8 10 C-5.03 10.495 -5.03 10.495 -2 11 C-2 10.01 -2 9.02 -2 8 C-4.31 7.01 -6.62 6.02 -9 5 C-8.625 2.5625 -8.625 2.5625 -8 0 C-5.13822943 -1.43088528 -3.06624227 -0.59991697 0 0 Z " fill="#FFFFFF" transform="translate(263,374)"/>
<path d="M0 0 C-2.64738916 1.4606285 -3.89448334 2 -7 2 C-6.34 3.32 -5.68 4.64 -5 6 C-3.02 5.67 -1.04 5.34 1 5 C0.175 5.598125 -0.65 6.19625 -1.5 6.8125 C-2.325 7.534375 -3.15 8.25625 -4 9 C-4 9.99 -4 10.98 -4 12 C-1.36 11.34 1.28 10.68 4 10 C4 10.66 4 11.32 4 12 C0.62902617 13.49821059 -1.20442119 14 -5 14 C-6.32 10.04 -7.64 6.08 -9 2 C-3.375 -1.125 -3.375 -1.125 0 0 Z " fill="#FFFFFF" transform="translate(317,363)"/>
<path d="M0 0 C3.82097239 0.53069061 6.06171403 1.49701566 9 4 C6.23723823 3.47731534 3.6739124 2.89130413 1 2 C0.67 3.32 0.34 4.64 0 6 C2.475 6.99 2.475 6.99 5 8 C2.50907189 9.24546405 1.58919267 8.7767578 -1 8 C-1.33 8.99 -1.66 9.98 -2 11 C-0.35 11.99 1.3 12.98 3 14 C2.67 14.66 2.34 15.32 2 16 C-1.465 14.02 -1.465 14.02 -5 12 C-3.68938409 7.76570244 -2.05643741 3.92592596 0 0 Z " fill="#FFFFFF" transform="translate(180,355)"/>
<path d="M0 0 C7 7 7 7 7.3125 9.9375 C7 13 7 13 5.8125 14.875 C3.14521272 16.53055762 2.10766312 16.70628707 -1 16 C-3.61644757 13.91119362 -5.93167423 11.63458211 -8 9 C-8 8.34 -8 7.68 -8 7 C-5 8 -5 8 -3.125 10.5625 C-1.2323837 13.28684933 -1.2323837 13.28684933 1.75 13.3125 C2.4925 13.209375 3.235 13.10625 4 13 C4.73342192 11.18522895 4.73342192 11.18522895 5 9 C4.04446855 7.08493423 4.04446855 7.08493423 2.5625 5.375 C0 2.17711172 0 2.17711172 0 0 Z " fill="#FFFFFF" transform="translate(169,147)"/>
<path d="M0 0 C3.625 -0.1875 3.625 -0.1875 7 0 C7.33 0.66 7.66 1.32 8 2 C5.69 2 3.38 2 1 2 C1 2.99 1 3.98 1 5 C2.134375 5.4125 3.26875 5.825 4.4375 6.25 C8 8 8 8 9.0625 10.0625 C9 12 9 12 7 14 C0.67741935 14.33870968 0.67741935 14.33870968 -2 13 C-1.67 12.34 -1.34 11.68 -1 11 C-0.05125 11.165 0.8975 11.33 1.875 11.5 C4.80168901 12.0526635 4.80168901 12.0526635 7 12 C6.67 11.01 6.34 10.02 6 9 C4.845 8.505 3.69 8.01 2.5 7.5 C1.345 7.005 0.19 6.51 -1 6 C-1.33 5.01 -1.66 4.02 -2 3 C-1.34 2.01 -0.68 1.02 0 0 Z " fill="#FFFFFF" transform="translate(152,237)"/>
<path d="M0 0 C2.4375 0.75 2.4375 0.75 5 2 C5.875 4 5.875 4 6 6 C5.67 6.66 5.34 7.32 5 8 C3.68 8 2.36 8 1 8 C0.67 9.32 0.34 10.64 0 12 C-1.65 12.33 -3.3 12.66 -5 13 C-6.5625 11.1875 -6.5625 11.1875 -8 9 C-7.67 8.01 -7.34 7.02 -7 6 C-6.34 7.32 -5.68 8.64 -5 10 C-3.68 10 -2.36 10 -1 10 C-1 8.35 -1 6.7 -1 5 C0.32 5.33 1.64 5.66 3 6 C3 5.01 3 4.02 3 3 C2.01 2.67 1.02 2.34 0 2 C0 1.34 0 0.68 0 0 Z " fill="#FFFFFF" transform="translate(361,168)"/>
<path d="M0 0 C2.75 1.4375 2.75 1.4375 3.75 4.4375 C3.09 4.4375 2.43 4.4375 1.75 4.4375 C1.42 3.7775 1.09 3.1175 0.75 2.4375 C-1.66619823 2.18719023 -1.66619823 2.18719023 -4.25 2.4375 C-6.58391203 5.21864056 -6.58391203 5.21864056 -5.875 8.125 C-5.565625 9.2696875 -5.565625 9.2696875 -5.25 10.4375 C-4.651875 10.581875 -4.05375 10.72625 -3.4375 10.875 C-1.68849596 11.3247439 0.03677023 11.86642341 1.75 12.4375 C0.75 13.4375 0.75 13.4375 -2.125 13.6875 C-5.25 13.4375 -5.25 13.4375 -7.125 12.375 C-8.93953275 9.24997137 -8.74493962 6.96394482 -8.25 3.4375 C-5.45860172 0.07140208 -4.36751842 -0.75591665 0 0 Z " fill="#FFFFFF" transform="translate(208.25,365.5625)"/>
<path d="M0 0 C0.66 0.33 1.32 0.66 2 1 C1.484375 1.598125 0.96875 2.19625 0.4375 2.8125 C-0.2740625 3.8953125 -0.2740625 3.8953125 -1 5 C-0.67 5.99 -0.34 6.98 0 8 C2.24362573 8.2284549 2.24362573 8.2284549 4.125 6 C5.053125 5.01 5.053125 5.01 6 4 C4.125 8.75 4.125 8.75 3 11 C4.32 11.66 5.64 12.32 7 13 C6.67 13.66 6.34 14.32 6 15 C2.7 12.69 -0.6 10.38 -4 8 C-2 3 -2 3 0 0 Z " fill="#FFFFFF" transform="translate(141,175)"/>
<path d="M0 0 C1.64846769 0.44876616 3.29373455 0.90930488 4.9375 1.375 C5.85402344 1.63023438 6.77054687 1.88546875 7.71484375 2.1484375 C10 3 10 3 11 5 C9.35 5 7.7 5 6 5 C4.68 8.3 3.36 11.6 2 15 C0.84042793 11.52128379 1.22543349 10.65780355 2.4375 7.3125 C2.72496094 6.50425781 3.01242187 5.69601563 3.30859375 4.86328125 C3.53675781 4.24839844 3.76492188 3.63351563 4 3 C2.68 2.67 1.36 2.34 0 2 C0 1.34 0 0.68 0 0 Z " fill="#FFFFFF" transform="translate(296,123)"/>
<path d="M0 0 C-1.32 0.33 -2.64 0.66 -4 1 C-3.649375 2.2375 -3.29875 3.475 -2.9375 4.75 C-2.04406727 7.903292 -1.99118706 9.86774164 -3 13 C-3.50367757 11.54293274 -4.00282556 10.08429904 -4.5 8.625 C-4.7784375 7.81289063 -5.056875 7.00078125 -5.34375 6.1640625 C-6 4 -6 4 -6 2 C-7.65 2.33 -9.3 2.66 -11 3 C-11 2.34 -11 1.68 -11 1 C-3.57142857 -1.42857143 -3.57142857 -1.42857143 0 0 Z " fill="#FFFFFF" transform="translate(303,368)"/>
<path d="M0 0 C0.99 0.33 1.98 0.66 3 1 C1.515 2.485 1.515 2.485 0 4 C0.37253906 4.55429687 0.74507813 5.10859375 1.12890625 5.6796875 C1.60199219 6.40414063 2.07507813 7.12859375 2.5625 7.875 C3.03816406 8.59429687 3.51382812 9.31359375 4.00390625 10.0546875 C4.49697266 11.01761719 4.49697266 11.01761719 5 12 C4.67 12.66 4.34 13.32 4 14 C2.02 11.03 0.04 8.06 -2 5 C-3.65 5.33 -5.3 5.66 -7 6 C-4.74259377 3.66475218 -2.7194239 1.81294927 0 0 Z " fill="#FFFFFF" transform="translate(344,346)"/>
<path d="M0 0 C0.33 0 0.66 0 1 0 C1 1.65 1 3.3 1 5 C2.32 5.33 3.64 5.66 5 6 C4.01 6.33 3.02 6.66 2 7 C2 9.97 2 12.94 2 16 C2.99 16.33 3.98 16.66 5 17 C5 17.66 5 18.32 5 19 C3.35 18.67 1.7 18.34 0 18 C-0.06058594 17.22914063 -0.12117187 16.45828125 -0.18359375 15.6640625 C-0.26738281 14.66117188 -0.35117188 13.65828125 -0.4375 12.625 C-0.51871094 11.62726563 -0.59992188 10.62953125 -0.68359375 9.6015625 C-0.84965626 7.02072387 -0.84965626 7.02072387 -2 5 C-1.34 5 -0.68 5 0 5 C0 3.35 0 1.7 0 0 Z " fill="#FFFFFF" transform="translate(165,232)"/>
<path d="M0 0 C2.475 0.99 2.475 0.99 5 2 C1 6 1 6 -0.6875 7.625 C-2.11564313 8.98621473 -2.11564313 8.98621473 -3 11 C-3.99 9.68 -4.98 8.36 -6 7 C-5.67 6.34 -5.34 5.68 -5 5 C-4.01 5 -3.02 5 -2 5 C-1.01 4.34 -0.02 3.68 1 3 C0.67 2.01 0.34 1.02 0 0 Z " fill="#FFFFFF" transform="translate(370,180)"/>
<path d="M0 0 C0.99 0.495 0.99 0.495 2 1 C2.4140625 3.72265625 2.4140625 3.72265625 2.625 7.0625 C2.69976562 8.16722656 2.77453125 9.27195312 2.8515625 10.41015625 C2.90054687 11.26480469 2.94953125 12.11945313 3 13 C2.34 13 1.68 13 1 13 C-0.10228696 8.59085217 -0.07654536 4.51617599 0 0 Z " fill="#FFFFFF" transform="translate(270,373)"/>
<path d="M0 0 C0.33 0 0.66 0 1 0 C1 4.62 1 9.24 1 14 C0.67 14 0.34 14 0 14 C0 9.38 0 4.76 0 0 Z " fill="#FFFFFF" transform="translate(258,118)"/>
<path d="M0 0 C0.66 0.33 1.32 0.66 2 1 C-1.465 3.97 -1.465 3.97 -5 7 C-3.38262276 3.76524552 -2.52370777 2.29427979 0 0 Z " fill="#FFFFFF" transform="translate(245,203)"/>
<path d="" fill="#FFFFFF" transform="translate(0,0)"/>
<path d="" fill="#FFFFFF" transform="translate(0,0)"/>
<path d="" fill="#FFFFFF" transform="translate(0,0)"/>
<path d="" fill="#FFFFFF" transform="translate(0,0)"/>
<path d="" fill="#FFFFFF" transform="translate(0,0)"/>
</svg>
